<svg xmlns="http://www.w3.org/2000/svg" width="500" height="100" viewBox="0 0 500 100" fill="none"><g clip-path="url(#clip0_5599_1146)"><path d="M173.869 73.7536V84.4785H126.193V73.7536H143.617V26.2486H126.193V15.5184H173.869V26.2486H156.379V73.7536H173.869Z" fill="black"></path><path d="M92.8826 15.5224H79.6742L70.8975 70.3659H69.3866L59.0986 19.5199C58.4336 16.1116 57.2768 15.3272 54.0541 15.3272H46.909C43.7351 15.3272 42.5208 16.169 41.8602 19.5199L31.5372 70.3659H30.0214L21.2806 15.5224H7.11865L20.7308 81.1716C21.2626 84.0616 22.353 84.7715 25.5754 84.7715H34.8394C37.9334 84.7715 39.0593 84.027 39.6843 81.0302L49.3069 31.1279H50.8227L60.4996 81.0302C61.1242 84.027 62.1216 84.7715 65.3436 84.7715H74.5192C77.7412 84.7715 78.8271 84.027 79.3638 81.1716L92.8826 15.5224ZM100.001 100H0V0.00501361H100.001V100Z" fill="black"></path><path d="M264.911 66.8028C265.07 74.0983 265.497 79.8474 266.189 84.478H279.933C279.539 80.7377 279.161 74.5863 278.846 65.8188C278.488 55.7751 274.233 54.5168 267.066 53.0809V52.0306C275.004 50.7756 279.539 47.4215 279.539 35.1213C279.539 25.0161 277.877 21.3371 275.102 18.5539C272.859 16.3113 269.428 15.5224 264.189 15.5224H222.009V84.478H236.268V57.4285H255.962C260.018 57.4285 261.653 57.9746 262.859 59.0245C264.136 60.1279 264.783 61.404 264.911 66.8028ZM236.268 46.6542V27.2412H258.874C262.035 27.2412 263.024 27.5244 263.568 28.021C264.526 28.8987 265.519 30.4368 265.519 36.584C265.519 42.7892 264.5 44.5929 263.529 45.515C262.991 46.0207 262.035 46.6542 258.874 46.6542H236.268ZM300.003 100H199.998V0.00501361H300.003V100Z" fill="black"></path><path d="M422.05 15.5224V84.478H456.024C465.771 84.478 471.117 83.0378 475.279 79.3552C480.173 75.0467 482.553 67.0024 482.553 50.0047C482.553 32.9365 480.173 24.9586 475.279 20.6461C471.117 16.9583 465.771 15.5224 456.024 15.5224H422.05ZM468.551 50.0402C468.551 64.8348 467.328 68.629 464.721 70.7123C462.647 72.3787 460.258 72.7691 455.125 72.7691H436.304V27.2412H455.125C460.333 27.2412 462.519 27.4848 464.721 29.2267C467.381 31.3275 468.551 35.0638 468.551 50.0402ZM499.999 100H400.002V0.00501361H499.999V100Z" fill="black"></path><path d="M318.416 26.2486V15.5228H377.142V37.613H365.41V26.2486H339.966V43.7822H359.869V54.1315H339.966V73.7576H366.078V60.9799H377.812V84.4785H318.416V73.7576H328.061V26.2486H318.416Z" fill="black"></path></g><defs><clipPath id="clip0_5599_1146"><rect width="500" height="100" fill="white"></rect></clipPath></defs></svg>